<svg width="7999" height="984.169" version="1.1" viewBox="0 0 2116.378 260.392" id="svg10" xmlns="http://www.w3.org/2000/svg"><defs id="defs14"><path id="rect6359" d="M1269.271 1083.828h7333.264v1328.2H1269.271z"/><path id="rect10235" d="M1283.441 156.256H7533.89v738.675H1283.441z"/><path id="rect6269" d="M1054.073 245.996h2897.495v648.967H1054.073z"/></defs><g id="g8" transform="translate(-2.06 -2.635)"><path d="M133.53 2.635a128.948 128.948 0 0 0-39.879 6.35C77.99 14.088 63.674 22.17 51.341 32.532l11.347 11.347c12.153-9.935 26.315-17.24 41.671-21.424 1.794-.49 3.289-.86 3.323-.826.034.034-.91 1.142-2.099 2.46-10.148 11.265-18.93 24.25-25.315 37.37l8.328 8.328a147.092 147.092 0 0 1 2.397-5.052c7.466-14.84 17.042-27.898 29.068-39.638 4.923-4.806 6.68-6.308 7.383-6.308h.54v62.104l-1.325-.036c-7.026-.19-18.427-1.73-27.076-3.655a152.866 152.866 0 0 1-4.748-1.176l14.121 14.121c5.116.728 10.691 1.29 17.198 1.764l1.83.133v17.132l11.109 11.108v-28.24l1.83-.14a343.88 343.88 0 0 1 4.228-.29c11.052-.681 24.926-3.211 35.971-6.56 1.635-.494 3.004-.867 3.043-.826.197.2 2.283 7.356 3.15 10.803 1.296 5.153 2.149 9.438 2.905 14.59.68 4.638 1.38 11.73 1.383 14v1.451h-47.721l11.107 11.107h36.741l-.064 1.452a150.152 150.152 0 0 1-4.562 30.663l8.97 8.97c3.604-11.877 6.016-25.664 6.552-37.467l.164-3.618h42.586v1.008c0 1.807-.78 8.629-1.414 12.373-2.604 15.366-8.75 30.655-17.58 43.738-1.102 1.631-2.03 2.966-2.061 2.966-.031 0-1.243-.754-2.692-1.676-4.703-2.994-11.92-6.888-18.043-9.811l28.04 28.04a128.151 128.151 0 0 0 17.172-26.524c16.972-35.058 16.975-76.17.007-111.33-13.822-28.642-38.177-51.38-67.68-63.185a127.916 127.916 0 0 0-47.597-9.14zm5.563 16.153h.595c.692 0 2.461 1.533 7.699 6.67 9.834 9.647 17.905 20.07 24.772 31.992 3.895 6.764 8.31 16.103 7.757 16.406-.168.092-2.166.689-4.441 1.327-10.216 2.867-20.452 4.636-31.585 5.456-1.875.138-3.72.252-4.102.252h-.695V49.84zm20.33 2.838c.535-.018 7.059 1.851 10.343 2.972 16.655 5.685 31.894 15.371 44.22 28.108l3.41 3.524-1.851 1.191c-5.324 3.427-13.943 7.95-20.86 10.944-2.124.92-3.89 1.672-3.926 1.672-.036 0-.677-1.392-1.422-3.093-6.72-15.333-16.255-30.01-27.84-42.854-1.19-1.319-2.138-2.424-2.107-2.456.005-.004.016-.007.033-.007zm64.944 43.344 2.008 2.975c8.837 13.092 14.982 28.377 17.587 43.747.634 3.743 1.414 10.565 1.414 12.373v1.007h-42.593l-.175-3.092c-.703-12.474-3.207-26.197-6.963-38.165-.563-1.795-.936-3.339-.829-3.431.108-.093 1.786-.832 3.73-1.643 6.995-2.918 15.84-7.611 25.028-13.282z" fill="#1a9988" stroke-width=".252" id="path4" style="fill:#50a453;fill-opacity:1"/><path d="M36.584 49.14C20.312 68.565 9.613 92.718 7.25 118.845c-.779 8.095-.727 8.044-2.023 8.044-1.35 0-3.166 2.385-3.166 4.15 0 1.765 1.816 4.15 3.166 4.15 1.299 0 1.245-.049 2.023 8.045 2.128 23.922 11.988 48.156 27.398 67.459 21.743 27.192 54.332 44.99 88.06 47.999 8.095.778 8.044.726 8.044 2.025 0 .57.623 1.504 1.35 2.076 0 0 5.5 1.193 6.745-1.816.675-1.61.936-1.765 2.958-1.765 3.372 0 13.44-1.35 19.563-2.594 13.647-2.855 31.134-10.12 43.07-18.007a134.777 134.777 0 0 0 12.373-9.243l-5.829-5.828a67.161 67.161 0 0 1-3.481 2.826c-14.425 10.793-30.773 18.213-47.948 21.691-4.877.987-15.204 2.334-18.007 2.334h-1.97v-22.157l4.307-.311c6.018-.415 14.114-2.129 21.379-4.566 10.735-3.572 20.71-9.06 29.509-16.028l-5.887-5.887c-13.099 9.898-29.733 16.474-45.21 17.66l-4.099.31v-10.95c0-10.95 0-11 1.193-11.21.623-.153 2.906-.517 5.034-.829 9.043-1.332 18.445-5.38 26.775-11.287l-5.935-5.934c-7.378 4.821-15.864 8.041-23.489 8.763l-3.58.311.101-11.053.154-11.053 3.372-.88c2.945-.76 4.898-1.44 6.989-2.542l-6.515-6.516c-.779.282-1.503.492-2.128.6l-1.97.31v-5.008l-9.346-9.345v3.61h.003v10.742l-1.92-.312c-3.372-.572-9.39-3.893-12.351-6.85-2.958-2.959-6.279-8.977-6.851-12.349l-.312-1.92h14.352l-9.34-9.34h-5.009l.312-1.816c.121-.729.323-1.498.59-2.29l-6.49-6.491c-1.24 2.402-2.185 4.902-2.765 7.43l-.674 2.907-11.156.154-11.156.104.466-3.475c1.078-8.58 4.178-16.62 8.788-23.616l-5.944-5.944c-5.82 8.308-9.934 17.888-11.25 26.81-.312 2.128-.676 4.411-.83 5.035-.208 1.193-.26 1.192-11.207 1.192h-10.95l.363-4.514c.154-2.491.936-7.214 1.662-10.535 2.863-12.757 8.36-24.375 15.913-34.288l-5.85-5.85a99.47 99.47 0 0 0-7.111 10.146c-7.266 11.934-12.558 27.813-13.493 40.319l-.31 4.723H15.553v-1.817c0-7.472 2.75-22.003 6.073-31.915 4.692-14.116 11.476-26.405 20.838-37.616zm-21.027 86.565h22.154l.312 4.726c.675 8.924 4.15 21.639 8.613 31.239 7.835 17.02 21.845 32.535 38.556 42.759 11.934 7.265 27.97 12.609 40.736 13.493l4.308.31v22.313l-4.566-.364c-23.04-1.713-44.733-9.86-63.412-23.819-6.33-4.722-17.955-16.345-22.678-22.678-10.638-14.27-18.267-31.03-21.639-47.742-1.298-6.436-2.385-14.892-2.385-18.42zm61.904.007 11.156.101 11.156.154.675 2.857c1.92 8.51 8.095 17.02 15.981 22.054 3.684 2.334 5.813 3.27 10.172 4.41l3.373.882.153 11.053.105 11.053-3.582-.312c-4.462-.467-11.519-2.492-16.502-4.775-17.275-7.99-29.835-25.115-32.22-44.003zm-30.927.002h10.95c10.947-.004 10.999-.004 11.207 1.139.154.675.466 2.907.778 4.983 2.958 19.72 17.435 39.074 36.272 48.571 5.034 2.543 13.441 5.293 18.267 6.02 2.128.31 4.411.674 5.086.828 1.142.208 1.142.26 1.142 11.21v10.95l-4.1-.311c-25.064-1.92-50.23-16.763-64.5-37.985-8.147-12.091-13.75-27.607-14.738-40.891z" fill="#eb5600" stroke-width=".027" id="path6"/><g aria-label="global-conflicts.org" transform="translate(-1023.851 -20.51) scale(1.06175)" id="text10233" style="font-size:192px;line-height:0;white-space:pre;shape-inside:url(#rect10235);fill:#fefefe"><g aria-label="global-conflicts.com" transform="matrix(.90463 0 0 .90463 118.797 -940.604)" id="text6357" style="line-height:1.25;shape-inside:url(#rect6359);fill:#000"><path d="M1273.959 1203.172q0-23.719 10.313-38.25 10.406-14.531 29.25-14.531 7.968 0 14.062 3.843 6.094 3.75 10.5 10.688l2.063-12.656h27.937v100.312q0 20.063-13.781 31.031-13.688 11.063-37.782 11.063-7.874 0-16.5-2.156-8.624-2.157-16.5-5.813l5.438-23.437q6.844 3 13.031 4.406 6.281 1.5 14.344 1.5 10.125 0 15-4.031 4.969-4.032 4.969-12.75v-7.875q-4.313 5.53-10.032 8.343-5.624 2.813-12.937 2.813-18.75 0-29.063-13.875-10.312-13.875-10.312-36.656zm31.594 1.969q0 12.375 3.562 19.312 3.656 6.844 12.281 6.844 5.157 0 8.813-1.594 3.75-1.594 6.094-4.781v-42.656q-2.344-3.657-6-5.532-3.657-1.968-8.719-1.968-8.438 0-12.281 7.875-3.75 7.78-3.75 20.53z" style="font-family:Roboto;-inkscape-font-specification:Roboto;fill:#fff" id="path15862"/><path d="M1419.365 1253.703h-31.781v-146.25h31.781z" style="font-family:Roboto;-inkscape-font-specification:Roboto;fill:#fff" id="path15864"/><path d="M1434.553 1202.047q0-22.875 12.937-37.219 12.938-14.437 36.094-14.437 23.25 0 36.188 14.437 12.937 14.344 12.937 37.219v1.969q0 22.968-12.938 37.312-12.937 14.344-36 14.344-23.343 0-36.28-14.344-12.938-14.344-12.938-37.312zm31.687 1.969q0 12.75 3.938 20.062 4.031 7.219 13.593 7.219 9.282 0 13.313-7.313 4.031-7.312 4.031-19.968v-1.97q0-12.374-4.031-19.78-4.031-7.5-13.5-7.5-9.375 0-13.406 7.5-3.938 7.5-3.938 19.78z" style="font-family:Roboto;-inkscape-font-specification:Roboto;fill:#fff" id="path15866"/><path d="M1640.615 1205.14q0 23.157-9.937 36.844-9.938 13.688-29.438 13.688-8.25 0-14.437-3.563-6.188-3.562-10.594-10.312l-1.875 11.906h-27.656v-146.25h31.687v54.656q4.219-5.625 9.75-8.625 5.625-3.093 12.938-3.093 19.593 0 29.531 14.343 10.031 14.344 10.031 38.438zm-31.594-1.968q0-13.5-3.374-20.906-3.375-7.5-12.563-7.5-5.156 0-8.906 1.968-3.657 1.875-5.813 5.532v42.656q2.25 3.187 5.906 4.781 3.75 1.594 9 1.594 9.376 0 12.563-6.469 3.188-6.562 3.188-19.687z" style="font-family:Roboto;-inkscape-font-specification:Roboto;fill:#fff" id="path15868"/><path d="M1713.178 1253.61q-1.782-3.188-3.094-7.22-1.219-4.03-1.875-8.437-4.125 8.063-10.219 12.938-6 4.78-15.75 4.78-15.937 0-24.844-8.155-8.812-8.25-8.812-22.407 0-15.093 11.344-23.25 11.343-8.25 34.406-8.25h13.031v-7.218q0-6.47-3.094-9.938-3.093-3.469-9.468-3.469-5.532 0-8.25 2.625-2.625 2.532-2.625 7.97l-30.75-.095-.188-.562q-.656-13.875 11.531-23.157 12.282-9.375 32.344-9.375 18.844 0 30.469 9.375 11.719 9.375 11.719 26.813v38.25q0 8.062 1.312 15 1.406 6.937 4.125 13.875zm-22.313-20.532q5.813 0 10.219-2.719 4.5-2.718 6.281-6.468v-13.407h-12.75q-7.594 0-10.969 3.657-3.374 3.656-3.374 9.28 0 4.313 2.906 7.032 3 2.625 7.687 2.625z" style="font-family:Roboto;-inkscape-font-specification:Roboto;fill:#fff" id="path15870"/><path d="M1789.584 1253.703h-31.781v-146.25h31.781z" style="font-family:Roboto;-inkscape-font-specification:Roboto;fill:#fff" id="path15872"/><path d="M1867.865 1207.11h-55.219v-24.47h55.22z" style="font-family:Roboto;-inkscape-font-specification:Roboto;fill:#fff" id="path15874"/><path d="M1934.428 1231.297q6.468 0 9.656-3.469 3.188-3.562 3.188-10.219h28.875l.187.563q.375 16.594-11.531 27.094-11.813 10.406-30.375 10.406-23.157 0-35.719-14.25-12.469-14.344-12.469-37.313v-2.156q0-22.875 12.469-37.219 12.469-14.343 35.531-14.343 19.313 0 30.844 10.78 11.625 10.688 11.25 29.345l-.188.562h-28.874q0-7.219-3.282-11.719-3.281-4.593-9.75-4.593-9.187 0-12.844 7.406-3.562 7.312-3.562 19.781v2.156q0 12.75 3.563 19.97 3.656 7.218 13.03 7.218z" style="font-family:Roboto;-inkscape-font-specification:Roboto;fill:#fff" id="path15876"/><path d="M1985.053 1202.047q0-22.875 12.937-37.219 12.938-14.437 36.094-14.437 23.25 0 36.188 14.437 12.937 14.344 12.937 37.219v1.969q0 22.968-12.938 37.312-12.937 14.344-36 14.344-23.343 0-36.28-14.344-12.938-14.344-12.938-37.312zm31.687 1.969q0 12.75 3.938 20.062 4.031 7.219 13.593 7.219 9.282 0 13.313-7.313 4.031-7.312 4.031-19.968v-1.97q0-12.374-4.031-19.78-4.031-7.5-13.5-7.5-9.375 0-13.406 7.5-3.938 7.5-3.938 19.78z" style="font-family:Roboto;-inkscape-font-specification:Roboto;fill:#fff" id="path15878"/><path d="m2126.334 1152.266 1.219 14.25q4.968-7.594 12.281-11.813 7.313-4.312 16.313-4.312 14.906 0 23.25 10.125 8.437 10.125 8.437 32.156v61.031h-31.688v-61.125q0-9.656-3.093-13.687-3.094-4.125-9-4.125-5.063 0-9.094 1.78-4.031 1.782-6.75 5.063v72.094h-31.594v-101.437z" style="font-family:Roboto;-inkscape-font-specification:Roboto;fill:#fff" id="path15880"/><path d="M2211.928 1253.703v-79.5h-14.625v-21.937h14.625v-10.5q0-17.438 10.5-26.813 10.5-9.469 29.719-9.469 3.656 0 7.312.563 3.75.469 8.344 1.406l-2.344 23.344q-2.625-.469-4.594-.656-1.968-.282-4.781-.282-6 0-9.187 3.094-3.188 3.094-3.188 8.813v10.5h20.063v21.937h-20.063v79.5z" style="font-family:Roboto;-inkscape-font-specification:Roboto;fill:#fff" id="path15882"/><path d="M2307.084 1253.703h-31.781v-146.25h31.781z" style="font-family:Roboto;-inkscape-font-specification:Roboto;fill:#fff" id="path15884"/><path d="M2359.678 1253.703h-31.781v-101.437h31.78zm0-124.969h-31.781v-21.28h31.78z" style="font-family:Roboto;-inkscape-font-specification:Roboto;fill:#fff" id="path15886"/><path d="M2422.49 1231.297q6.469 0 9.657-3.469 3.187-3.562 3.187-10.219h28.875l.188.563q.375 16.594-11.532 27.094-11.812 10.406-30.375 10.406-23.156 0-35.718-14.25-12.47-14.344-12.47-37.313v-2.156q0-22.875 12.47-37.219 12.468-14.343 35.53-14.343 19.313 0 30.845 10.78 11.625 10.688 11.25 29.345l-.188.562h-28.875q0-7.219-3.281-11.719-3.281-4.593-9.75-4.593-9.188 0-12.844 7.406-3.562 7.312-3.562 19.781v2.156q0 12.75 3.562 19.97 3.656 7.218 13.031 7.218z" style="font-family:Roboto;-inkscape-font-specification:Roboto;fill:#fff" id="path15888"/><path d="M2513.709 1127.047v25.219h16.031v21.937h-16.031v46.5q0 5.438 2.156 7.875 2.25 2.344 6 2.344 2.438 0 3.844-.188 1.5-.187 3.75-.75l2.156 23.438q-4.781 1.219-8.625 1.687-3.844.563-9.094.563-15.656 0-23.812-8.344-8.063-8.344-8.063-26.437v-46.688h-14.156v-21.937h14.156v-25.22z" style="font-family:Roboto;-inkscape-font-specification:Roboto;fill:#fff" id="path15890"/><path d="M2597.99 1225.203q0-3.75-4.312-6.656-4.219-3-15.469-5.344-17.719-3.469-26.719-10.687-9-7.313-9-20.063 0-13.406 11.25-22.687 11.25-9.375 30.469-9.375 20.25 0 32.25 9.093 12 9 11.438 23.344l-.188.563h-30.75q0-6-3-9.094-3-3.094-9.844-3.094-4.968 0-8.343 2.719t-3.375 6.937q0 4.032 3.843 6.844 3.938 2.813 15.75 5.063 18.657 3.656 27.563 10.968 8.906 7.22 8.906 20.532 0 13.687-12.187 22.593-12.094 8.813-32.063 8.813-20.719 0-32.812-10.5-12-10.5-11.438-23.438l.188-.562h28.687q.188 7.219 4.313 10.406 4.218 3.188 11.906 3.188 6.375 0 9.656-2.438 3.281-2.531 3.281-7.125z" style="font-family:Roboto;-inkscape-font-specification:Roboto;fill:#fff" id="path15892"/><path d="M2678.709 1253.703h-31.594v-26.625h31.594z" style="font-family:Roboto;-inkscape-font-specification:Roboto;fill:#fff" id="path15894"/><path d="M2744.803 1231.297q6.469 0 9.656-3.469 3.188-3.562 3.188-10.219h28.875l.187.563q.375 16.594-11.531 27.094-11.813 10.406-30.375 10.406-23.156 0-35.719-14.25-12.469-14.344-12.469-37.313v-2.156q0-22.875 12.469-37.219 12.469-14.343 35.531-14.343 19.313 0 30.844 10.78 11.625 10.688 11.25 29.345l-.187.562h-28.875q0-7.219-3.282-11.719-3.281-4.593-9.75-4.593-9.187 0-12.843 7.406-3.563 7.312-3.563 19.781v2.156q0 12.75 3.563 19.97 3.656 7.218 13.03 7.218z" style="font-family:Roboto;-inkscape-font-specification:Roboto;fill:#fff" id="path15896"/><path d="M2795.428 1202.047q0-22.875 12.937-37.219 12.938-14.437 36.094-14.437 23.25 0 36.188 14.437 12.937 14.344 12.937 37.219v1.969q0 22.968-12.937 37.312-12.938 14.344-36 14.344-23.344 0-36.282-14.344-12.937-14.344-12.937-37.312zm31.687 1.969q0 12.75 3.938 20.062 4.031 7.219 13.594 7.219 9.28 0 13.312-7.313 4.031-7.312 4.031-19.968v-1.97q0-12.374-4.031-19.78-4.031-7.5-13.5-7.5-9.375 0-13.406 7.5-3.938 7.5-3.938 19.78z" style="font-family:Roboto;-inkscape-font-specification:Roboto;fill:#fff" id="path15898"/><path d="m2937.365 1152.266 1.125 13.406q4.782-7.313 12-11.25 7.313-4.031 16.688-4.031 9.469 0 16.312 4.125 6.844 4.125 10.313 12.562 4.687-7.969 12-12.281 7.406-4.406 17.25-4.406 14.812 0 23.25 10.687 8.531 10.594 8.531 32.719v59.906h-31.781v-59.906q0-10.875-3.094-14.906-3-4.125-9.094-4.125-4.593 0-8.156 1.687-3.469 1.594-5.906 4.5 0 1.594.094 2.813.094 1.125.094 2.25v67.687h-31.688v-59.906q0-10.969-3-15-3-4.031-9.281-4.031-4.312 0-7.875 1.687-3.469 1.594-5.906 4.5v72.75h-31.688v-101.437z" style="font-family:Roboto;-inkscape-font-specification:Roboto;fill:#fff" id="path15900"/></g></g></g></svg>